<?xml version="1.0" encoding="UTF-8"?>
<svg width="256px" height="183px" preserveAspectRatio="xMidYMid" version="1.1" viewBox="0 0 256 183" xmlns="http://www.w3.org/2000/svg" xmlns:cc="http://creativecommons.org/ns#" xmlns:dc="http://purl.org/dc/elements/1.1/" xmlns:rdf="http://www.w3.org/1999/02/22-rdf-syntax-ns#">
 <defs>
  <linearGradient id="linearGradient-1" x1="39.455" x2="39.455" y1="240.07" y2="205.82" gradientTransform="scale(1.6995 .5884)" gradientUnits="userSpaceOnUse">
   <stop stop-color="#FFFA8F" offset="0"/>
   <stop stop-color="#FB784B" offset="1"/>
  </linearGradient>
  <linearGradient id="linearGradient-2" x1="120.92" x2="125.06" y1="94.928" y2="83.945" gradientTransform="scale(1.7965 .55665)" gradientUnits="userSpaceOnUse">
   <stop stop-color="#5BCB99" offset="0"/>
   <stop stop-color="#85A8E8" offset="1"/>
  </linearGradient>
  <linearGradient id="linearGradient-3" x1="57.457" x2="231.49" y1="168.7" y2="8.6321" gradientTransform="scale(1.3314 .75109)" gradientUnits="userSpaceOnUse">
   <stop stop-color="#34E28B" offset="0"/>
   <stop offset="1"/>
  </linearGradient>
  <linearGradient id="linearGradient-4" x1="155.91" x2="179.77" y1="114.55" y2="114.55" gradientTransform="scale(.76366 1.3095)" gradientUnits="userSpaceOnUse">
   <stop stop-color="#C297FF" offset="0"/>
   <stop stop-color="#AE31BB" offset="1"/>
  </linearGradient>
  <linearGradient id="linearGradient-5" x1="38.268" x2="235.06" y1="278.38" y2="68.017" gradientTransform="scale(1.1707 .85418)" gradientUnits="userSpaceOnUse">
   <stop offset="0"/>
   <stop stop-color="#D23DE2" offset="1"/>
  </linearGradient>
  <linearGradient id="linearGradient-6" x1="183.84" x2="175.87" y1="49.987" y2="86.845" gradientTransform="scale(1.1707 .85418)" gradientUnits="userSpaceOnUse">
   <stop offset="0"/>
   <stop stop-opacity="0" offset="1"/>
  </linearGradient>
  <linearGradient id="linearGradient-7" x1="120.97" x2="181.96" y1="176.72" y2="193.77" gradientTransform="scale(1.0742 .93096)" gradientUnits="userSpaceOnUse">
   <stop stop-color="#2DB5F9" offset="0"/>
   <stop offset="1"/>
  </linearGradient>
  <linearGradient id="linearGradient-8" x1="95.751" x2="43.117" y1="-.36823" y2="97.406" gradientTransform="scale(.8223 1.2161)" gradientUnits="userSpaceOnUse">
   <stop offset="0"/>
   <stop stop-color="#48080A" offset=".21"/>
   <stop stop-color="#891014" offset=".42"/>
   <stop stop-color="#BC151B" offset=".61"/>
   <stop stop-color="#E01A21" offset=".78"/>
   <stop stop-color="#F71C24" offset=".91"/>
   <stop stop-color="#FF1D25" offset="1"/>
  </linearGradient>
 </defs>
 <path d="m31.035 117.48 0.60357 0.95403c3.1165 4.4217 6.7508 8.4546 10.825 12.013 9.4774 7.762 21.355 11.994 33.605 11.974h2.3169c8.5074-0.69234 16.846-2.7637 24.688-6.133-3.5175 0.56444-7.0691 0.88968-10.631 0.9735-12.244-0.01-23.907-5.2188-32.087-14.33-10.033 0.0824-19.989-1.7685-29.322-5.4516z" fill="url(#linearGradient-1)"/>
 <path d="m76.05 36.195c18.607-0.016223 35.864 9.713 45.482 25.642-11.148-10.112-26.751-13.703-41.199-9.4819 9.735 4.6923 22.994 8.2747 41.257 9.5208 0 0-0.89562-17.387-23.15-26.479-31.152-12.675-35.455-10.163-43.34-23.364-1.1644 9.2239 1.3696 18.534 7.0481 25.895 4.5371-1.1884 9.2116-1.7711 13.902-1.7328z" fill="#f15a24"/>
 <path d="m98.44 35.396c-10.65-4.2445-18.146-6.8924-23.753-8.9173 1.4489 3.5668 3.4172 6.8997 5.841 9.8908 16.988 1.4022 32.27 10.875 41.082 25.467-6.6644-6.0596-15.06-9.8794-24.006-10.923 7.3994 4.4148 15.227 8.0679 23.364 10.903h0.68145s-0.93456-17.328-23.208-26.421z" fill="#ed1c24"/>
 <path d="m121.55 61.876h0.11682c0.35046-1.947 2.4338-16.919-14.505-30.062-25.272-19.606-30.198-21.436-31.405-31.814-4.1009 8.2739-4.4902 17.901-1.0708 26.479 5.5879 1.947 13.103 4.5754 23.734 8.9173 22.293 9.0925 23.169 26.479 23.169 26.479z" fill="#c1272d"/>
 <path d="m198.24 44.781c9.4839-0.0116 18.653 3.4042 25.817 9.6182 8.2826 0.3589 16.166 3.6586 22.235 9.3067 0 0-21.242-30.86-58.683-18.029-3.355 1.2093-6.5672 2.7828-9.5792 4.6923 6.1068-3.6572 13.092-5.5885 20.21-5.5879z" fill="url(#linearGradient-2)"/>
 <path d="m198.24 44.781c-7.1165-0.0074-14.101 1.9172-20.21 5.5684l1.0903-0.66198c-30.256 17.815-67.347 72.565-118.77 73.246 8.1966 9.0751 19.858 14.248 32.087 14.233 3.5615-0.0838 7.1132-0.40906 10.631-0.9735 33.449-13.785 65.575-46.728 80.158-62.713 13.512-14.817 28.329-19.859 40.887-19.1-7.1826-6.2202-16.374-9.6298-25.876-9.5987z" fill="url(#linearGradient-3)"/>
 <path d="m120.13 150.89c-0.67663 2.2096-1.0372 4.5039-1.0708 6.8145-5e-3 2.6749 0.40172 5.3346 1.2071 7.8854-0.87664-6.4569 1.5349-12.924 6.4251-17.231l0.15576-0.5841c1.7058-5.6103 5.4218-10.394 10.436-13.434-1.5835 0.50915-3.1371 1.1072-4.6533 1.7912-6.0219 2.9872-10.544 8.3268-12.5 14.758z" fill="url(#linearGradient-4)"/>
 <path d="m255.52 92.58c0.0121-10.385-3.2363-20.512-9.2872-28.952-6.0659-5.6055-13.925-8.8759-22.176-9.2288 8.6763 7.5037 13.652 18.415 13.629 29.886 0 13.259-4.8091 28.426-20.405 36.584-22.702 11.877-57.534 6.2304-80.158 13.629-5.003 3.0392-8.7113 7.8148-10.416 13.415l-0.15576 0.5841c6.6198-5.841 19.684-9.9881 45.17-6.6977 18.204 2.3364 32.651 2.9789 45.073-0.5841 12.008-2.6203 22.561-9.732 29.497-19.879 5.9914-8.393 9.2173-18.445 9.2288-28.757z" fill="url(#linearGradient-5)"/>
 <path d="m255.52 92.58c0.0121-10.385-3.2363-20.512-9.2872-28.952-6.0659-5.6055-13.925-8.8759-22.176-9.2288 8.6763 7.5037 13.652 18.415 13.629 29.886 0 13.259-4.8091 28.426-20.405 36.584-22.702 11.877-57.534 6.2304-80.158 13.629-5.003 3.0392-8.7113 7.8148-10.416 13.415l-0.15576 0.5841c6.6198-5.841 19.684-9.9881 45.17-6.6977 18.204 2.3364 32.651 2.9789 45.073-0.5841 12.008-2.6203 22.561-9.732 29.497-19.879 5.9914-8.393 9.2173-18.445 9.2288-28.757z" fill="url(#linearGradient-6)" opacity=".49"/>
 <path d="m142.73 177.66c-12.43-3.8084-19.539-16.85-16.004-29.361-4.8902 4.3066-7.3017 10.774-6.4251 17.231 2.5043 7.8378 8.7795 13.893 16.702 16.115s16.431 0.31552 22.647-5.0759c-5.315 2.427-11.337 2.815-16.919 1.0903z" fill="url(#linearGradient-7)"/>
 <path d="m151.03 175.93c2.4727-7.2234 10.494-18.36 19.081-13.259 0 0 6.9897 3.894 8.45-7.1455 0 0 5.2374 26.051-19.996 25.175 0 0 5.6852-4.1471 5.6268-8.411-4.0336 2.2472-8.5467 3.4956-13.162 3.6409z" fill="#00f" style="mix-blend-mode:screen"/>
 <path d="m161.11 159.98c2.8127-1.8995 6.4433-2.0942 9.443-0.50622 3.563 1.5771 8.0411-4.5949 4.1666-10.124 0 0 0.25311 5.7047-4.3418 5.6463-3.7689-0.16113-7.3244 1.751-9.2677 4.9843z" fill="#5fd2ff" style="mix-blend-mode:screen"/>
 <path d="m186.46 77.101c-6.0357 8.2358-14.914 15.128-15.946 16.822-1.0319 1.6939 1.7523 7.1455 5.841 7.5349 4.0887 0.3894 0.95403-1.5771 0.60357-3.5046s1.2266 1.2266 6.172 0.48675-1.7912-2.57-1.324-5.0622c0.46728-2.4922 5.549-7.2234 7.5738-11.974 2.0249-4.7507 5.4905 0 3.7188 3.7188-0.70092 1.4797 5.6268-4.1471 2.4338-8.4305-3.1931-4.2834-5.549-4.4002-9.073 0.40887z" fill="#219058"/>
 <path d="m169.23 95.111c-0.89562 0.85668-3.5046 2.7647-3.5046 2.7647s2.57 3.563 5.841 3.5046c0 0 0.70092-0.33099-0.31152-1.3824-1.1277-1.4022-1.8304-3.0981-2.0249-4.887z" fill="#219058"/>
 <path d="m80.333 52.355c-7.1168-3.2416-13.348-8.1503-18.166-14.31-16.235 4.3946-29.43 16.219-35.57 31.878s-4.5017 33.3 4.4184 47.56c9.3393 3.6855 19.301 5.5365 29.341 5.4516-9.9971-11.055-13.603-26.476-9.5436-40.817 4.0591-14.341 15.212-25.585 29.52-29.761z" fill="url(#linearGradient-8)"/>
 <path d="m80.431 36.37c2.3559 3.4072 9.1314 9.2872 17.114 14.544 8.94 1.0472 17.328 4.8667 23.987 10.923-8.8159-14.597-24.106-24.071-41.101-25.467z" fill="#f7b852"/>
 <path d="m80.431 36.37c-1.4408-0.11682-2.901-0.17523-4.3613-0.17523-4.6996 0.03158-9.3742 0.68628-13.902 1.947 4.8177 6.1602 11.049 11.069 18.166 14.31 5.5817-1.6347 11.437-2.1183 17.211-1.4213-7.9827-5.3737-14.758-11.254-17.114-14.661z" fill="#ff8431"/>
 <path d="m109.91 48.461c-4.0878-3.8368-8.9559-6.7458-14.272-8.5279 3.4267 6.5224 6.3862 8.5279 14.272 8.5279z" fill="#fffb69"/>
 <g fill="#c1272d">
  <path d="m94.877 20.716c2.661 1.6215 5.2167 3.4099 7.6517 5.3542 0.60357 0.46728-1.0903-4.1471-3.0568-5.0233-1.4747-0.51824-3.0612-0.63252-4.5949-0.33099z"/>
  <path d="m104.32 27.394c2.6313 1.6663 5.1665 3.4799 7.5933 5.4321 0.62304 0.44781-1.0514-4.1666-3.0178-5.0622-1.4652-0.52775-3.0445-0.65544-4.5754-0.36993z"/>
  <path d="m113.2 33.936c1.6097 1.5066 2.9934 3.2379 4.1082 5.1401 0.31152 0.44781 0-3.0178-1.0708-4.0108-0.89379-0.64022-1.9424-1.0301-3.0373-1.1293z"/>
 </g>
 <g fill="#44c688">
  <path d="m72.273 118.12c-0.23364-0.75932 2.7453-1.7328 3.5435-1.7718 1.4532 0.23753 2.8596 0.70412 4.1666 1.3824-1.8348 0.69363-3.7655 1.1008-5.7242 1.2071-0.71152-0.13192-1.3878-0.4104-1.9859-0.81774z"/>
  <path d="m83.001 115.57c-0.25311-0.5841 2.0443-1.616 2.6869-1.7134 1.1816 0.0693 2.3448 0.32562 3.4462 0.75933-1.41 0.70703-2.9204 1.193-4.4781 1.4408-0.57946-0.0456-1.1431-0.21137-1.6549-0.48676z"/>
  <path d="m91.996 112.28c-0.25311-0.46728 1.5381-1.4992 2.0443-1.655 0.97739-0.05 1.9565 0.0551 2.901 0.31152-1.0743 0.70526-2.2494 1.2436-3.4851 1.5965-0.49931 0.0219-0.99744-0.0644-1.4602-0.25311z"/>
  <path d="m99.141 109.03c-0.27258-0.40887 1.3045-1.4797 1.7523-1.655 0.88355-0.14089 1.7838-0.14089 2.6674 0-0.95213 0.72159-2.0093 1.2929-3.1347 1.6939-0.42651 0.0748-0.86382 0.0616-1.285-0.0389z"/>
  <path d="m105.8 105.39c-0.25311-0.33099 1.0514-1.3434 1.4408-1.5187 0.76749-0.122 1.5494-0.122 2.3169 0-0.78713 0.67668-1.6736 1.2283-2.6284 1.6355-0.38045 0.0396-0.76498-1.8e-4 -1.1293-0.11682z"/>
  <path d="m61.506 118.98c-0.11682-0.85668 3.1931-1.3629 4.0498-1.2655 1.4953 0.50225 2.9016 1.2383 4.1666 2.1806-2.055 0.42334-4.1629 0.52841-6.2499 0.31152-0.73401-0.26694-1.4039-0.6848-1.9665-1.2266z"/>
 </g>
 <path d="m63.55 18.574c2.2546 1.9979 4.9098 3.4914 7.788 4.3807-0.9585-2.8489-1.3294-5.8626-1.0903-8.8588 0-0.21417-6.7171-0.11682-7.788-5.6268-0.29205-1.1098-1.2461 7.457 1.0903 10.105z" fill="#c1272d"/>
 <g fill="#f15a24">
  <path d="m40.692 145.87c0.19125-1.8171 1.1471-3.4669 2.6284-4.5365l0.21417-0.11682c-0.55271-0.12628-1.1116-0.22376-1.6744-0.29205-8.0022-1.1877-10.047 3.5825-10.455 8.9367v0.91509c1.8631-3.2882 5.4609-5.201 9.2288-4.9064z"/>
  <path d="m50.447 144.08c-7.9632-4.8286-12.441-5.179-14.213 8.3526 0 0 8.3721-6.6198 12.344-2.239 4.3029 4.7702 10.144 0.36993 7.0871-2.3948-1.548-1.4882-3.306-2.7412-5.218-3.7188z"/>
  <path d="m47.156 145.69c-4.517 2.9984-4.517 10.066-4.517 10.066s8.2358-4.4586 7.5933-7.2428c-0.26752-1.5292-1.5297-2.6876-3.0763-2.8232z"/>
  <path d="m16.566 109.17c1.5345-0.98997 3.4177-1.2802 5.179-0.79827h0.23364c-0.24692-0.50699-0.51986-1.0009-0.81774-1.4797-4.1666-6.9118-9.1509-5.51-13.59-2.4922-0.27258 0.17523-0.50622 0.36993-0.73986 0.56463 3.7294-0.60318 7.4711 1.0058 9.5987 4.1276z"/>
  <path d="m25.016 117.48c-2.901-11.487-5.2374-15.926-16.335-7.9827 0 0 9.5014-2.7258 10.592 10.786 0.50622 6.3862 6.6587 7.6712 6.5809 3.5435 0.03275-2.1453-0.24933-4.2838-0.83721-6.3472z"/>
  <path d="m20.966 111.33c-5.2764-1.2461-10.455 3.5825-10.455 3.5825s8.119-0.27258 9.0925 4.6339c0.56463 2.7453 1.3629-8.2163 1.3629-8.2163z"/>
 </g>
 <path d="m183.23 73.499c5.1031-5.9275 11.238-10.881 18.107-14.622 6.7008-3.4344 14.102-5.2798 21.631-5.3932l2.1612 1.947h-1.1293c-7.6812-0.50056-15.36 1.0164-22.274 4.4002-6.9374 3.4065-13.203 8.0366-18.496 13.668z" fill="#29b36e"/>
 <path d="m223.79 53.562c4.215 0.39684 8.3412 1.4547 12.227 3.1347 3.8584 1.6406 7.3576 4.0219 10.3 7.0092-3.1315-2.7575-6.7774-4.8683-10.728-6.2109-3.4259-1.0827-6.9566-1.8006-10.533-2.1417l-2.1612-1.947z" fill="#6fd191"/>
 <path d="m127.2 146.78c1.163-0.81982 2.3794-1.5613 3.6409-2.2196 0.88141-0.44727 1.7846-0.85015 2.7063-1.2071 0.91509-0.3894 1.947-0.68145 2.7842-0.99297 3.7439-1.147 7.6028-1.8783 11.507-2.1806 7.7469-0.50102 15.525-0.19434 23.208 0.91509 7.6224 1.1227 15.297 1.857 22.994 2.2001 7.7086 0.39295 15.433-0.3683 22.916-2.2585-7.4624 2.0313-15.186 2.9369-22.916 2.6869-7.7222-0.19869-15.429-0.79005-23.091-1.7718-7.6233-0.93214-15.323-1.0692-22.975-0.40887-3.7903 0.3419-7.5315 1.0993-11.156 2.2585-0.89562 0.31152-1.7912 0.60356-2.6479 0.99297-0.8699 0.35934-1.7212 0.76223-2.5506 1.2071-1.6444 0.87682-3.1856 1.9348-4.5949 3.1541l-0.62304 0.54516c0.19724-0.99102 0.46399-1.9669 0.79827-2.9205z" fill="#c83ad7"/>
 <path class="toto" d="m81.774 55.782c-7.4375 1.6355-6.2888 7.5349-6.2888 7.5349s2.3559-2.8426 15.303-4.3807c-3.0824-0.81501-6.0965-1.8696-9.0146-3.1541z" fill="#c1272d"/>
 <path d="m120.27 165.63c-0.24579-1.6374-0.27851-3.2996-0.0973-4.9454 0.16516-1.6779 0.52451-3.3309 1.0708-4.9259 0.54867-1.6039 1.2804-3.1392 2.1806-4.5754 0.93804-1.4131 2.0284-2.7189 3.2515-3.894l0.52569-0.48676s-0.73986 2.3559-0.81774 2.94c-0.69817 0.70902-1.3486 1.4635-1.947 2.2585-1.9609 2.5784-3.2942 5.5782-3.894 8.7615-0.2999 1.604-0.39152 3.24-0.27258 4.8675z" fill="#fba9ff"/>
 <path d="m58.644 122.93c-4.5942-5.463-7.7825-11.967-9.2872-18.944-0.79773-3.6423-1.1184-7.3729-0.95403-11.098l0.15576-2.7842 0.3894-2.7647c0.1345-0.91741 0.31646-1.8272 0.54516-2.7258 0.17925-0.90893 0.41332-1.8062 0.70092-2.6869 1.0369-3.5524 2.5429-6.9506 4.4781-10.105 0.95283-1.58 1.9996-3.1014 3.1347-4.556l1.7912-2.1028c0.5841-0.70092 1.285-1.324 1.947-1.947 2.6219-2.5734 5.5593-4.8042 8.742-6.6393 3.1842-1.7996 6.5693-3.2177 10.085-4.225-3.4693 1.1114-6.7956 2.6275-9.9102 4.517-3.0863 1.9068-5.919 4.1965-8.4305 6.8145-0.60357 0.66198-1.2656 1.285-1.8302 1.947l-1.7912 2.1612c-1.0702 1.4585-2.052 2.9799-2.94 4.556-1.7943 3.1268-3.1628 6.4794-4.0692 9.9686-0.25489 0.86295-0.45646 1.7408-0.60357 2.6284-0.17655 0.88168-0.30653 1.772-0.3894 2.6674l-0.29205 2.6674v2.6869c-0.04676 3.5761 0.37212 7.1431 1.2461 10.611 1.739 6.9226 5.2018 13.292 10.066 18.516l0.7788 0.83721s-2.9205 0.0584-3.563 0z" fill="#ff737d"/>
 <path d="m103.07 136.29c-3.8357 0.85653-7.7519 1.3004-11.682 1.324-3.9647-0.11165-7.8954-0.76676-11.682-1.947-3.7895-1.1253-7.4454-2.6595-10.903-4.5754-3.5058-1.9184-6.7078-4.3461-9.5014-7.2039l-0.81774-0.85668h3.4657c2.3086 2.468 4.9262 4.6276 7.788 6.4251 3.3212 2.0104 6.8535 3.6493 10.533 4.887 3.6166 1.3183 7.3962 2.1371 11.234 2.4338 3.8615 0.23869 7.7374 0.0756 11.565-0.48675z" fill="#fff4c0"/>
 <text x="118.63982" y="36.444916" fill="#000000" font-family="sans-serif" font-size="40px" letter-spacing="0px" word-spacing="0px" style="line-height:1.25" xml:space="preserve">
   <tspan class="toto" x="118.63982" y="36.444916" fill="#ff6600" font-family="'Segoe Script'" font-size="29.333px">Dragon
   </tspan>
 </text>
</svg>
